<?xml version="1.0" encoding="UTF-8" standalone="no"?>
<!DOCTYPE svg PUBLIC "-//W3C//DTD SVG 1.1//EN" "http://www.w3.org/Graphics/SVG/1.1/DTD/svg11.dtd">
<svg width="100%" height="100%" viewBox="0 0 20 16" version="1.1" xmlns="http://www.w3.org/2000/svg" xmlns:xlink="http://www.w3.org/1999/xlink" xml:space="preserve" xmlns:serif="http://www.serif.com/" style="fill-rule:evenodd;clip-rule:evenodd;stroke-linecap:round;stroke-linejoin:round;">
    <g transform="matrix(0.888344,0,0,1,-1.03645,-4.25972)">
        <path d="M10,5C9.503,5 9.024,5.185 8.656,5.519L2.328,11.259C2.119,11.448 2,11.718 2,12C2,12.281 2.119,12.551 2.328,12.74L8.656,18.481C9.024,18.815 9.503,19 10,19L20,19C21.097,19 22,18.097 22,17L22,7C22,5.903 21.097,5 20,5L10,5Z" style="fill:none;fill-rule:nonzero;stroke:rgb(83,0,185);stroke-width:1.57px;"/>
    </g>
    <g transform="matrix(0.888344,0,0,1,-1.03645,-4.25972)">
        <path d="M12,9L18,15" style="fill:none;fill-rule:nonzero;stroke:rgb(83,0,185);stroke-width:1.57px;"/>
    </g>
    <g transform="matrix(0.888344,0,0,1,-1.03645,-4.25972)">
        <path d="M18,9L12,15" style="fill:none;fill-rule:nonzero;stroke:rgb(83,0,185);stroke-width:1.57px;"/>
    </g>
</svg>
