<?xml version="1.0" encoding="UTF-8" standalone="no"?>
<!DOCTYPE svg PUBLIC "-//W3C//DTD SVG 1.1//EN" "http://www.w3.org/Graphics/SVG/1.1/DTD/svg11.dtd">
<svg width="100%" height="100%" viewBox="0 0 64 64" version="1.1" xmlns="http://www.w3.org/2000/svg" xmlns:xlink="http://www.w3.org/1999/xlink" xml:space="preserve" xmlns:serif="http://www.serif.com/" style="fill-rule:evenodd;clip-rule:evenodd;stroke-linejoin:round;stroke-miterlimit:2;">
    <g transform="matrix(0.521072,0,0,0.521072,-73.6343,-227.281)">
        <circle cx="202.312" cy="497.18" r="59.269" style="fill:white;"/>
        <path d="M202.312,435.992C236.083,435.992 263.501,463.409 263.501,497.18C263.501,530.951 236.083,558.368 202.312,558.368C168.542,558.368 141.124,530.951 141.124,497.18C141.124,463.409 168.542,435.992 202.312,435.992ZM202.312,437.911C169.601,437.911 143.043,464.468 143.043,497.18C143.043,529.892 169.601,556.449 202.312,556.449C235.024,556.449 261.582,529.892 261.582,497.18C261.582,464.468 235.024,437.911 202.312,437.911Z" style="fill:white;"/>
    </g>
    <g transform="matrix(1,0,0,1,-156.258,-451.126)">
        <g transform="matrix(30,0,0,30,197.755,493.48)">
        </g>
        <text x="178.331px" y="493.48px" style="font-family:'SFProDisplay-Bold', 'SF Pro Display';font-weight:700;font-size:30px;fill:rgb(19,146,57);">4</text>
    </g>
</svg>
